# xmcd CD database file
#
# Track frame offsets:
#	150
#	14118
#	26547
#	41749
#	56194
#	79634
#	94462
#	112528
#	128640
#	141502
#	156017
#	169652
#	185499
#	200354
#	216188
#	229456
#	246582
#	261970
#
# Disc length: 3743 seconds
#
# Revision: 3
# Processed by: cddbd v1.5.1PL0 Copyright (c) Steve Scherf et al.
# Submitted via: CDex 1.51
#
DISCID=080e9d12
DTITLE=Tom Jones - In Nashville
DYEAR=2004
DGENRE=Country
TTITLE0=Darlin'
TTITLE1=What In The World's Come Over You
TTITLE2=Lady Lay Down
TTITLE3=Bit I Do
TTITLE4=Come Home Rhondda Boy
TTITLE5=Dime Queen Of Nevada
TTITLE6=Woman's Touch, A
TTITLE7=Touch Me (Then I'll Be Your Fool Once More)
TTITLE8=It'll Be Me
TTITLE9=I Don't Want To Be Alone Tonight
TTITLE10=My Last Goodbye
TTITLE11=I've Been Rained On Too
TTITLE12=This Time
TTITLE13=All The Love Is On The Radio
TTITLE14=I'm An Old Rock'N'Roller
TTITLE15=Give Her All The Roses
TTITLE16=Not Another Heart Song
TTITLE17=It's Four In The Morning
EXTD=\nURL: http://www.kensai.com/tomjones/ "Tom Jones - The MAN!"\nURL: http://kspace.com/jones "Tom Jones" YEAR: 2004
EXTT0=
EXTT1=
EXTT2=
EXTT3=
EXTT4=
EXTT5=
EXTT6=
EXTT7=
EXTT8=
EXTT9=
EXTT10=
EXTT11=
EXTT12=
EXTT13=
EXTT14=
EXTT15=
EXTT16=
EXTT17=
PLAYORDER=
